<svg width="640" height="420" viewBox="0 0 640 420" fill="none" xmlns="http://www.w3.org/2000/svg">
  <rect width="640" height="420" rx="30" fill="#F8FAFC"/>
  <rect x="64" y="84" width="232" height="252" rx="24" fill="#FFFFFF"/>
  <rect x="92" y="116" width="176" height="16" rx="8" fill="#0F172A"/>
  <rect x="92" y="148" width="144" height="10" rx="5" fill="#94A3B8"/>
  <rect x="92" y="178" width="176" height="56" rx="16" fill="#EFF6FF"/>
  <rect x="92" y="250" width="110" height="12" rx="6" fill="#0F172A"/>
  <rect x="92" y="274" width="144" height="10" rx="5" fill="#CBD5E1"/>
  <rect x="340" y="70" width="228" height="280" rx="26" fill="#DBEAFE"/>
  <rect x="378" y="114" width="152" height="112" rx="22" fill="#FFFFFF"/>
  <path d="M398 140H510C516 140 520 144 520 150V194C520 200 516 204 510 204H398C392 204 388 200 388 194V150C388 144 392 140 398 140Z" fill="#EFF6FF"/>
  <path d="M394 150L454 186L514 150" stroke="#2563EB" stroke-width="8" stroke-linecap="round" stroke-linejoin="round"/>
  <circle cx="454" cy="270" r="34" fill="#2563EB"/>
  <path d="M454 254V286" stroke="white" stroke-width="6" stroke-linecap="round"/>
  <path d="M438 270H470" stroke="white" stroke-width="6" stroke-linecap="round"/>
  <rect x="392" y="318" width="124" height="12" rx="6" fill="#1E3A8A"/>
</svg>
